<?xml version="1.0" standalone="no"?>
<!DOCTYPE svg PUBLIC "-//W3C//DTD SVG 20010904//EN"
 "http://www.w3.org/TR/2001/REC-SVG-20010904/DTD/svg10.dtd">
<svg version="1.0" xmlns="http://www.w3.org/2000/svg"
 width="241.000000pt" height="227.000000pt" viewBox="0 0 241.000000 227.000000"
 preserveAspectRatio="xMidYMid meet">
<metadata>
Created by potrace 1.10, written by Peter Selinger 2001-2011
</metadata>
<g transform="translate(0.000000,227.000000) scale(0.100000,-0.100000)"
fill="#f18e0b" stroke="none">
<path d="M982 2148 c-10 -10 -9 -32 4 -97 8 -39 24 -5 24 51 0 49 -9 65 -28
46z"/>
<path d="M1096 2094 c-3 -9 -6 -30 -6 -47 0 -41 19 -23 27 26 6 37 -9 52 -21
21z"/>
<path d="M875 2068 c8 -27 35 -58 35 -41 0 7 -4 23 -10 37 -12 32 -34 35 -25
4z"/>
<path d="M883 1938 c-21 -24 -195 -517 -187 -529 4 -7 3 -9 -2 -6 -13 8 -68
-138 -58 -154 4 -7 3 -10 -3 -6 -6 4 -13 1 -16 -6 -3 -9 51 -12 250 -12 l255
0 19 -46 c18 -46 18 -47 -4 -67 -44 -40 -90 -56 -179 -60 -102 -5 -125 7 -114
59 l6 30 -132 -3 -131 -3 -42 -126 c-23 -70 -45 -132 -49 -138 -4 -6 -2 -11 3
-11 6 0 11 7 11 15 0 8 9 15 20 15 11 0 20 -7 20 -15 0 -8 7 -15 15 -15 8 0
15 7 15 15 0 8 7 15 15 15 8 0 15 6 15 14 0 7 9 16 21 19 15 4 23 0 26 -14 3
-10 12 -19 19 -19 8 0 14 -9 14 -20 0 -13 -7 -20 -20 -20 -11 0 -20 -4 -20
-10 0 -5 9 -10 20 -10 11 0 20 -7 20 -15 0 -8 5 -15 10 -15 6 0 10 7 10 15 0
8 7 15 16 15 20 0 43 28 44 52 0 14 26 80 38 97 1 3 52 8 112 11 60 4 115 11
122 17 7 6 25 13 40 17 14 3 40 18 57 32 37 30 48 26 57 -24 3 -20 14 -50 24
-67 9 -16 32 -68 50 -115 18 -47 42 -109 53 -138 l21 -53 118 3 118 3 0 -137
c0 -97 3 -138 11 -138 7 0 17 -7 24 -16 9 -14 33 -17 126 -18 130 -2 140 -1
132 22 -4 14 -3 14 5 3 9 -12 13 -12 26 -2 9 8 16 19 16 25 0 6 -5 4 -10 -4
-7 -12 -12 -12 -21 -3 -10 10 -9 14 4 19 9 3 17 13 17 21 0 8 -12 1 -30 -18
-16 -18 -27 -36 -24 -41 3 -4 -7 -8 -23 -7 -25 0 -26 1 -8 9 18 8 18 9 -5 9
-15 1 -30 -3 -35 -8 -6 -5 -35 -5 -70 -1 -41 6 -64 5 -73 -3 -11 -9 -13 -7
-11 8 2 11 -4 31 -13 43 -15 22 -17 22 -21 5 -3 -12 -5 -10 -6 9 0 15 4 30 9
33 6 4 8 10 6 14 -3 4 -6 44 -7 89 -1 55 -6 85 -15 93 -18 15 -17 89 0 112 13
17 14 17 18 1 1 -10 3 55 3 143 0 89 -3 156 -7 149 -4 -6 -8 1 -8 17 l0 27
125 0 c128 0 130 -1 126 -40 -2 -13 -1 -13 8 0 5 8 7 18 4 24 -3 5 -1 6 6 2 6
-4 9 -11 6 -16 -3 -5 0 -12 6 -16 8 -4 9 -3 5 4 -4 7 -4 12 1 12 24 -1 32 -21
35 -85 2 -39 7 -69 13 -68 5 1 11 7 13 15 2 9 0 8 -7 -2 -9 -13 -11 -13 -11 2
0 9 6 18 12 20 24 8 9 80 -24 115 -52 54 -83 63 -212 63 l-116 0 0 -187 c0
-104 -4 -183 -9 -178 -14 17 -171 416 -171 437 0 6 27 8 66 5 58 -4 65 -3 59
12 -4 9 -18 46 -32 84 l-25 67 -72 0 -71 1 -109 274 -110 275 -92 0 c-51 0
-99 2 -107 5 -7 3 -19 0 -24 -7z m58 -23 c3 2 20 4 39 4 19 1 53 1 76 1 l41 1
16 -56 c9 -31 13 -64 10 -73 -4 -14 -3 -14 5 -3 9 12 12 10 17 -12 4 -15 11
-27 16 -27 5 0 9 -5 9 -11 0 -5 -4 -7 -10 -4 -5 3 -10 2 -10 -3 0 -6 6 -12 14
-15 8 -3 17 -19 21 -36 4 -17 14 -35 22 -40 11 -5 12 -10 4 -15 -7 -5 -5 -14
8 -28 11 -11 17 -27 14 -36 -4 -10 -2 -13 6 -8 9 6 10 0 5 -20 -5 -19 -4 -25
5 -20 7 5 11 -1 11 -14 0 -12 5 -31 12 -43 7 -12 13 -31 15 -42 5 -26 14 -34
59 -50 29 -10 43 -10 52 -2 11 8 16 7 24 -8 10 -17 12 -17 24 -1 11 16 13 16
19 -3 3 -12 8 -39 10 -61 l4 -40 -44 0 c-32 0 -45 -4 -45 -14 0 -20 -31 -24
-143 -21 -102 3 -126 12 -128 49 -1 19 -2 18 -9 -4 -6 -22 -8 -23 -15 -8 -4
10 -12 15 -19 11 -18 -12 -420 -11 -428 1 -3 5 6 28 22 51 15 22 33 61 40 85
6 25 16 53 21 62 5 10 9 30 10 45 0 25 1 26 9 8 7 -17 9 -15 9 12 1 27 4 31
19 26 16 -7 16 -6 0 11 -19 19 -24 31 -9 22 9 -6 26 40 22 58 -1 5 3 12 9 16
6 4 12 17 13 28 1 12 5 22 10 22 5 0 5 10 2 21 -5 13 -3 19 3 15 5 -3 13 6 16
19 4 15 11 23 17 19 8 -4 9 1 4 16 -5 15 -4 20 4 16 7 -4 9 -1 5 8 -3 8 0 24
6 36 10 18 10 21 -2 14 -9 -6 -9 -3 2 11 31 40 35 43 46 34 6 -5 13 -7 15 -4z
m292 -722 c-13 -2 -33 -2 -45 0 -13 2 -3 4 22 4 25 0 35 -2 23 -4z m157 -12
c12 -1 12 -3 2 -9 -10 -7 -10 -15 2 -43 9 -19 15 -27 16 -19 0 13 1 13 10 0 6
-9 5 -17 -3 -22 -9 -6 -9 -10 0 -16 16 -10 35 -61 26 -75 -4 -6 0 -8 10 -4 11
4 14 2 11 -7 -3 -8 -1 -17 5 -21 6 -3 11 -11 11 -17 0 -6 -7 -5 -17 3 -14 12
-14 10 1 -13 17 -26 35 -41 20 -16 -4 7 -3 8 5 4 6 -4 9 -11 6 -16 -3 -4 2
-21 10 -36 8 -16 15 -40 16 -54 0 -23 1 -23 9 -5 12 29 13 -6 1 -38 -7 -17 -6
-24 4 -24 7 0 11 7 8 16 -3 12 -2 11 7 -2 6 -9 10 -32 8 -50 l-3 -32 -97 -2
c-96 -2 -98 -2 -104 22 -3 14 -10 25 -15 25 -5 0 -9 8 -9 18 0 9 -7 30 -15 46
-8 15 -15 32 -15 38 0 5 -9 28 -20 50 -21 44 -26 63 -10 38 8 -13 10 -12 10 3
0 9 -7 17 -17 17 -15 0 -14 2 3 15 16 13 16 14 2 9 -20 -7 -25 11 -5 20 6 3 2
3 -10 0 -20 -5 -23 -1 -23 21 0 34 -28 82 -51 88 -15 4 -17 11 -10 46 1 2 9
-3 18 -10 12 -10 10 -4 -5 18 l-23 32 73 4 c40 1 89 2 108 1 19 -2 42 -3 50
-3z m18 -46 c-3 -3 -9 2 -12 12 -6 14 -5 15 5 6 7 -7 10 -15 7 -18z m-591 -25
c1 -11 -3 -20 -8 -20 -6 0 -7 5 -3 12 5 7 3 8 -5 3 -9 -5 -10 -10 -2 -18 6 -6
11 -15 11 -21 0 -5 -3 -7 -6 -3 -4 3 -14 -1 -23 -10 -11 -12 -13 -17 -3 -21
13 -4 17 -32 4 -32 -4 0 -9 -11 -10 -26 -2 -28 -20 -65 -36 -76 -7 -5 -6 -8 4
-8 13 0 13 -1 0 -10 -22 -14 -31 -12 -28 7 2 11 -11 24 -37 37 -22 12 -42 23
-45 26 -12 12 -28 8 -26 -8 1 -12 -6 -17 -21 -16 -18 0 -20 -2 -11 -13 8 -11
7 -12 -6 -7 -9 3 -16 15 -16 26 0 10 4 17 9 14 5 -4 7 3 4 13 -3 10 1 30 8 42
7 13 12 30 11 37 -2 6 2 12 8 12 6 0 8 5 5 10 -3 6 -2 10 3 10 5 0 8 10 8 23
-1 21 2 22 79 19 61 -3 123 6 130 17 1 1 1 -8 2 -19z m33 -74 c0 -17 -28 -41
-37 -32 -10 9 16 58 27 51 6 -3 10 -12 10 -19z m63 -23 c-7 -2 -19 -2 -25 0
-7 3 -2 5 12 5 14 0 19 -2 13 -5z m75 0 c-10 -2 -28 -2 -40 0 -13 2 -5 4 17 4
22 1 32 -1 23 -4z m939 -25 c-3 -7 -5 -2 -5 12 0 14 2 19 5 13 2 -7 2 -19 0
-25z m-1182 -128 c3 -5 1 -10 -4 -10 -6 0 -11 5 -11 10 0 6 2 10 4 10 3 0 8
-4 11 -10z"/>
<path d="M1205 1580 c3 -5 8 -10 11 -10 2 0 4 5 4 10 0 6 -5 10 -11 10 -5 0
-7 -4 -4 -10z"/>
<path d="M973 1554 c-7 -3 -9 -12 -6 -21 4 -10 2 -14 -4 -10 -7 5 -14 -8 -18
-33 -5 -32 -10 -39 -20 -30 -10 8 -15 8 -21 -1 -4 -8 -3 -9 4 -5 16 10 15 -6
0 -24 -11 -12 -10 -12 5 -1 15 12 17 11 17 -8 0 -15 -4 -20 -12 -15 -7 4 -3
-3 8 -16 15 -16 36 -23 73 -26 51 -3 51 -3 72 37 11 22 18 46 16 52 -3 7 -10
1 -16 -13 l-11 -25 3 28 c3 15 0 27 -4 27 -5 0 -9 9 -9 21 0 11 -4 17 -10 14
-5 -3 -7 0 -4 8 10 27 -31 54 -63 41z m55 -77 c31 -87 31 -87 -33 -87 -30 0
-55 2 -55 3 0 2 9 30 20 62 11 32 20 66 20 76 0 37 26 7 48 -54z"/>
<path d="M1226 1483 c-6 -14 -5 -15 5 -6 7 7 10 15 7 18 -3 3 -9 -2 -12 -12z"/>
<path d="M1111 1444 c0 -11 3 -14 6 -6 3 7 2 16 -1 19 -3 4 -6 -2 -5 -13z"/>
<path d="M648 1023 c6 -2 18 -2 25 0 6 3 1 5 -13 5 -14 0 -19 -2 -12 -5z"/>
<path d="M688 1003 c6 -2 18 -2 25 0 6 3 1 5 -13 5 -14 0 -19 -2 -12 -5z"/>
<path d="M715 980 c-3 -5 -1 -10 4 -10 6 0 11 5 11 10 0 6 -2 10 -4 10 -3 0
-8 -4 -11 -10z"/>
<path d="M214 1652 c-22 -2 -35 -11 -43 -28 -14 -33 -15 -31 19 -26 17 2 36
15 45 29 19 29 19 29 -21 25z"/>
<path d="M430 1652 c-21 -2 -42 -12 -52 -25 -25 -31 -23 -33 22 -29 28 3 44
11 55 29 20 29 20 29 -25 25z"/>
<path d="M272 1625 c-7 -14 -12 -27 -12 -29 0 -10 67 10 77 23 19 25 15 31
-20 31 -26 0 -36 -6 -45 -25z"/>
<path d="M449 1519 c-41 -72 -73 -136 -71 -141 8 -27 147 -256 153 -252 13 8
101 166 95 171 -3 3 -18 -16 -33 -42 -15 -25 -36 -61 -46 -78 l-19 -30 -17 29
c-10 16 -41 69 -69 117 l-52 88 61 107 c64 113 79 134 85 117 11 -27 66 -106
71 -102 5 6 -63 134 -76 141 -4 3 -41 -54 -82 -125z"/>
<path d="M380 1562 c-21 -2 -42 -12 -52 -25 -25 -31 -22 -37 16 -37 27 0 39 7
56 31 12 16 21 31 19 32 -2 1 -20 1 -39 -1z"/>
<path d="M117 1530 l-18 -30 33 0 c26 0 37 6 50 30 l17 30 -32 0 c-26 0 -37
-6 -50 -30z"/>
<path d="M218 1530 l-17 -30 34 0 c28 0 37 6 50 30 l16 30 -33 0 c-26 0 -37
-6 -50 -30z"/>
<path d="M65 1440 l-16 -30 30 0 c19 0 34 8 45 25 22 33 21 35 -14 35 -23 0
-33 -7 -45 -30z"/>
<path d="M165 1440 l-16 -30 34 0 c26 0 36 6 50 30 l18 30 -35 0 c-29 0 -38
-5 -51 -30z"/>
<path d="M268 1440 l-17 -30 38 0 c30 0 42 6 55 25 22 33 21 35 -21 35 -32 0
-41 -5 -55 -30z m56 2 c3 -5 -1 -9 -9 -9 -8 0 -15 4 -15 9 0 4 4 8 9 8 6 0 12
-4 15 -8z"/>
<path d="M1643 1426 c-63 -28 -89 -107 -54 -164 59 -92 197 -72 217 33 17 92
-78 169 -163 131z m91 -17 c17 -8 39 -29 50 -48 18 -31 18 -36 4 -74 -14 -41
-55 -75 -90 -76 -34 -2 -87 32 -99 63 -24 57 -5 112 48 138 34 17 49 16 87 -3z"/>
<path d="M1623 1358 c-2 -5 26 -8 63 -8 l67 0 -6 -52 c-4 -36 -3 -48 3 -38 5
8 10 35 10 60 l0 45 -66 0 c-36 0 -68 -3 -71 -7z"/>
<path d="M1684 1315 c5 -20 2 -27 -16 -35 -19 -7 -15 -9 22 -8 25 0 37 2 28 5
-17 4 -23 20 -19 51 1 6 -3 12 -10 12 -7 0 -9 -9 -5 -25z"/>
<path d="M1621 1314 c0 -11 3 -14 6 -6 3 7 2 16 -1 19 -3 4 -6 -2 -5 -13z"/>
<path d="M1620 1280 c0 -5 5 -10 10 -10 6 0 10 5 10 10 0 6 -4 10 -10 10 -5 0
-10 -4 -10 -10z"/>
<path d="M68 1328 c11 -18 42 -71 69 -118 l49 -85 142 -5 c78 -3 141 -3 140 0
-37 73 -72 118 -86 113 -14 -4 -14 -3 -3 5 12 8 9 19 -16 64 l-30 53 -143 3
-142 3 20 -33z m62 2 c0 9 3 11 10 4 6 -6 31 -8 60 -4 28 4 50 4 50 0 0 -3 15
-4 33 -2 29 3 35 -1 55 -36 12 -21 19 -41 17 -44 -3 -3 4 -13 15 -23 11 -10
20 -28 20 -39 0 -13 3 -17 8 -9 5 8 11 5 18 -10 10 -22 9 -22 -101 -22 -73 0
-114 4 -123 12 -7 7 -20 33 -28 58 -9 25 -20 45 -26 45 -5 0 -7 4 -4 9 3 5 -1
14 -9 21 -8 7 -15 22 -15 34 0 17 2 18 10 6 8 -13 10 -13 10 0z"/>
<path d="M323 1282 c2 -12 6 -24 10 -28 3 -4 4 4 2 16 -6 30 -16 40 -12 12z"/>
<path d="M1695 1031 c-6 -11 9 -23 19 -14 9 9 7 23 -3 23 -6 0 -12 -4 -16 -9z"/>
<path d="M1737 1033 c-12 -11 -8 -20 12 -26 18 -4 50 8 41 16 -11 10 -47 17
-53 10z"/>
<path d="M1961 1014 c0 -11 3 -14 6 -6 3 7 2 16 -1 19 -3 4 -6 -2 -5 -13z"/>
<path d="M1871 1004 c0 -11 3 -14 6 -6 3 7 2 16 -1 19 -3 4 -6 -2 -5 -13z"/>
<path d="M1710 993 c5 -2 10 -14 10 -24 0 -11 -4 -17 -10 -14 -11 7 -13 -7
-10 -75 1 -25 7 -49 13 -53 9 -6 9 -10 0 -14 -7 -2 -13 -9 -13 -14 0 -6 6 -7
13 -3 8 5 7 2 -2 -10 -11 -13 -11 -20 -3 -28 14 -14 16 -48 3 -48 -5 0 -7 9
-4 20 3 11 0 20 -6 20 -7 0 -9 -21 -7 -62 6 -92 7 -95 16 -68 7 21 8 22 9 4 1
-11 -3 -24 -8 -30 -5 -5 -11 -27 -13 -49 -2 -32 1 -40 15 -43 16 -3 17 12 15
244 -2 191 -6 248 -16 250 -7 1 -8 0 -2 -3z m7 -455 c-3 -8 -6 -5 -6 6 -1 11
2 17 5 13 3 -3 4 -12 1 -19z"/>
<path d="M1796 989 c-3 -8 -5 -122 -4 -252 l3 -237 -27 0 c-32 0 -31 0 -18
-34 5 -14 15 -26 22 -25 10 0 10 2 1 6 -7 2 -13 14 -13 26 0 20 0 20 15 1 12
-16 14 -17 15 -2 0 9 5 18 11 20 6 2 11 75 12 205 3 209 -4 320 -17 292z"/>
<path d="M1191 983 c-1 -7 -8 -10 -16 -7 -8 4 -15 2 -15 -2 0 -12 -42 -30
-103 -45 -48 -12 -207 -8 -239 6 -15 6 -18 2 -18 -25 0 -20 -7 -38 -17 -46
-24 -17 -8 -30 20 -16 12 6 72 13 132 15 82 3 125 10 168 27 75 28 108 58 97
85 -5 11 -9 15 -9 8z m-339 -95 c-7 -7 -12 -8 -12 -2 0 14 12 26 19 19 2 -3
-1 -11 -7 -17z"/>
<path d="M1754 825 c0 -88 2 -123 3 -77 2 46 2 118 0 160 -1 42 -3 5 -3 -83z"/>
<path d="M1959 941 l-29 -29 0 -197 c0 -128 -3 -194 -10 -190 -6 4 -10 -7 -9
-27 1 -18 3 -25 6 -15 2 9 9 15 14 11 5 -3 9 -2 8 3 -7 38 -2 42 171 130 3 2
6 -44 8 -102 l3 -105 -45 0 -45 0 3 54 3 53 -51 -28 c-51 -27 -51 -27 -49 -74
2 -52 12 -68 64 -101 30 -18 51 -23 110 -23 41 0 86 0 101 0 51 0 58 33 56
251 l-2 193 -6 -201 c-4 -149 -9 -205 -19 -217 -20 -25 -35 -20 -17 5 9 12 16
32 15 43 0 17 -2 16 -10 -5 -15 -42 -58 -60 -136 -59 -79 1 -60 17 22 19 98 2
106 25 103 275 l-3 192 -48 -29 c-27 -16 -64 -35 -83 -43 -19 -8 -34 -19 -34
-24 0 -6 -4 -11 -9 -11 -9 0 -16 164 -7 178 2 4 22 6 43 4 36 -3 39 -6 37 -33
-1 -16 0 -29 3 -29 2 0 27 10 55 22 43 18 49 25 45 45 -2 12 0 23 4 23 15 0
10 -57 -5 -69 -8 -7 -24 -14 -36 -16 -27 -5 -36 -13 -26 -22 4 -4 26 3 50 16
35 20 42 28 41 51 -2 29 -42 77 -82 98 -12 7 -56 12 -98 12 -71 0 -79 -2 -106
-29z m193 -4 c15 -1 24 -5 22 -9 -3 -4 -1 -8 5 -8 5 0 9 -15 8 -32 -2 -28 -6
-33 -27 -33 -18 0 -26 6 -28 23 -3 20 -8 22 -42 18 -21 -2 -41 -1 -45 2 -10
10 -35 11 -29 1 3 -5 10 -6 16 -3 7 4 8 2 4 -4 -4 -7 -15 -12 -24 -12 -10 0
-13 -3 -7 -8 6 -4 10 -16 9 -27 -5 -64 -5 -123 1 -141 12 -38 85 -36 85 2 0
11 27 26 40 22 3 -1 15 4 26 10 l22 11 -2 -163 c0 -90 2 -162 7 -159 4 2 7 -1
7 -7 0 -6 -7 -13 -16 -17 -8 -3 -13 -12 -10 -20 4 -9 2 -11 -6 -7 -8 5 -9 2
-4 -11 5 -15 4 -16 -8 -6 -11 9 -15 9 -18 -1 -4 -10 -9 -10 -23 2 -10 8 -16
10 -12 3 5 -7 1 -11 -10 -11 -10 1 -32 -2 -50 -6 -27 -6 -35 -3 -54 18 -12 14
-25 24 -28 21 -4 -2 -7 5 -7 16 0 10 4 19 9 19 4 0 5 6 0 13 -13 20 -12 36 2
31 7 -3 16 -1 20 5 8 14 35 14 35 1 0 -6 -3 -9 -7 -8 -5 0 -19 -4 -33 -11
l-25 -11 27 5 c15 3 30 0 34 -7 4 -7 3 -8 -4 -4 -7 4 -12 2 -12 -4 0 -7 9 -14
20 -17 11 -3 21 -13 21 -22 1 -14 2 -14 6 1 2 10 10 15 19 11 7 -3 12 -9 9
-13 -3 -5 8 -2 25 6 23 12 30 23 31 47 2 30 2 30 9 -8 5 -27 8 -32 9 -15 1 14
4 36 8 49 4 15 2 22 -4 18 -7 -4 -11 10 -11 39 -1 24 -4 49 -7 53 -3 5 3 12
12 15 14 6 14 9 -5 26 -21 20 -53 26 -66 13 -4 -4 -20 -8 -36 -9 -22 -1 -27 2
-23 15 4 13 3 13 -5 2 -6 -8 -8 -20 -5 -27 5 -13 -34 -40 -44 -30 -3 3 -6 79
-7 169 -1 163 -1 164 21 161 16 -1 20 2 16 13 -5 12 -7 12 -14 1 -5 -7 -9 -8
-9 -2 0 18 6 19 82 15 40 -1 85 -4 100 -4z m-70 -249 c-7 -7 -12 -8 -12 -2 0
14 12 26 19 19 2 -3 -1 -11 -7 -17z"/>
<path d="M2105 920 c3 -4 14 -10 25 -13 11 -3 18 -2 15 3 -3 4 -14 10 -25 13
-11 3 -18 2 -15 -3z"/>
<path d="M2156 915 c4 -8 11 -15 16 -15 6 0 5 6 -2 15 -7 8 -14 15 -16 15 -2
0 -1 -7 2 -15z"/>
<path d="M2133 704 c-12 -26 -12 -26 7 -9 11 10 17 22 14 26 -7 12 -7 12 -21
-17z"/>
<path d="M2060 650 c-8 -5 -10 -10 -5 -10 6 0 17 5 25 10 8 5 11 10 5 10 -5 0
-17 -5 -25 -10z"/>
<path d="M2068 853 c6 -2 18 -2 25 0 6 3 1 5 -13 5 -14 0 -19 -2 -12 -5z"/>
<path d="M2248 825 c-17 -34 -17 -35 2 -23 11 7 20 23 20 35 0 30 -2 29 -22
-12z"/>
<path d="M590 835 c0 -8 -9 -15 -20 -15 -11 0 -20 -4 -20 -10 0 -5 9 -10 20
-10 11 0 20 -7 20 -15 0 -8 5 -15 10 -15 6 0 10 7 10 15 0 8 9 15 20 15 11 0
20 5 20 10 0 6 -9 10 -20 10 -11 0 -20 7 -20 15 0 8 -4 15 -10 15 -5 0 -10 -7
-10 -15z"/>
<path d="M2050 790 c0 -32 4 -49 10 -45 6 3 10 24 10 45 0 21 -4 42 -10 45 -6
4 -10 -13 -10 -45z"/>
<path d="M468 775 c-15 -45 -15 -45 8 -45 15 0 24 -6 24 -15 0 -8 7 -15 15
-15 8 0 15 -6 15 -14 0 -9 8 -12 25 -8 30 5 34 22 5 22 -11 0 -20 7 -20 15 0
8 -7 15 -15 15 -8 0 -15 9 -15 20 0 11 7 20 15 20 8 0 15 5 15 10 0 6 -7 10
-15 10 -8 0 -15 7 -15 15 0 33 -28 12 -42 -30z"/>
<path d="M1861 804 c0 -11 3 -14 6 -6 3 7 2 16 -1 19 -3 4 -6 -2 -5 -13z"/>
<path d="M720 775 c0 -8 -7 -15 -15 -15 -8 0 -15 -5 -15 -11 0 -6 7 -9 16 -7
18 3 40 48 24 48 -6 0 -10 -7 -10 -15z"/>
<path d="M620 745 c0 -8 -7 -15 -15 -15 -8 0 -15 -7 -15 -15 0 -9 6 -12 15 -9
9 4 15 0 15 -10 0 -9 7 -16 15 -16 8 0 15 7 15 15 0 8 7 15 15 15 8 0 15 4 15
9 0 5 -8 8 -17 7 -11 0 -17 6 -17 17 1 9 -4 17 -12 17 -8 0 -14 -7 -14 -15z"/>
<path d="M2230 680 c0 -46 2 -81 5 -78 8 8 10 147 2 154 -4 4 -7 -30 -7 -76z"/>
<path d="M440 709 c0 -5 5 -7 10 -4 6 3 10 8 10 11 0 2 -4 4 -10 4 -5 0 -10
-5 -10 -11z"/>
<path d="M660 648 c0 -10 -7 -18 -15 -18 -8 0 -15 -5 -15 -11 0 -5 5 -7 10 -4
6 3 13 -1 16 -9 8 -21 24 -21 24 0 0 8 4 13 9 9 5 -3 12 -1 16 5 3 5 1 10 -6
10 -6 0 -18 8 -25 18 -13 16 -13 16 -14 0z"/>
<path d="M1882 620 c0 -19 2 -27 5 -17 2 9 2 25 0 35 -3 9 -5 1 -5 -18z"/>
<path d="M1753 580 c0 -36 2 -50 4 -32 2 17 2 47 0 65 -2 17 -4 3 -4 -33z"/>
<path d="M561 613 c-1 -7 -8 -13 -16 -13 -8 0 -15 -5 -15 -11 0 -5 4 -8 9 -4
6 3 14 -2 19 -11 8 -15 10 -15 15 1 4 9 11 13 17 10 5 -3 10 -1 10 4 0 6 -6
11 -14 11 -8 0 -17 6 -19 13 -4 10 -6 10 -6 0z"/>
<path d="M1822 565 c0 -16 2 -22 5 -12 2 9 2 23 0 30 -3 6 -5 -1 -5 -18z"/>
<path d="M2066 578 c3 -4 11 -5 19 -1 21 7 19 12 -4 10 -11 0 -18 -5 -15 -9z"/>
<path d="M2234 500 c0 -52 1 -74 3 -47 2 26 2 68 0 95 -2 26 -3 4 -3 -48z"/>
<path d="M2017 553 c-16 -8 -26 -17 -24 -20 6 -5 67 24 67 32 0 8 -13 4 -43
-12z"/>
<path d="M636 552 c-3 -5 -1 -14 3 -20 6 -10 10 -10 20 1 9 12 8 16 -3 20 -9
4 -17 3 -20 -1z"/>
<path d="M1852 540 c0 -14 2 -19 5 -12 2 6 2 18 0 25 -3 6 -5 1 -5 -13z"/>
<path d="M1967 533 c-4 -3 -7 -11 -7 -17 0 -6 5 -5 12 2 6 6 9 14 7 17 -3 3
-9 2 -12 -2z"/>
<path d="M585 501 c-7 -12 12 -24 25 -16 11 7 4 25 -10 25 -5 0 -11 -4 -15 -9z"/>
<path d="M2051 468 c-1 -16 4 -28 9 -28 12 0 12 8 0 35 -8 18 -9 17 -9 -7z"/>
</g>
</svg>
